<svg width="60" height="30" viewBox="0 0 42 30" fill="none" xmlns="http://www.w3.org/2000/svg">
<path d="M33.9017 15.0127H8.09832C3.81343 15.0127 0.339844 18.2729 0.339844 22.2945C0.339844 26.3161 3.81343 29.5762 8.09832 29.5762H33.9017C38.1866 29.5762 41.6602 26.3161 41.6602 22.2945C41.6602 18.2729 38.1866 15.0127 33.9017 15.0127Z" fill="#C5D9FF"/>
<path d="M20.9968 26.3686C27.0227 26.3686 31.9077 21.7838 31.9077 16.1282C31.9077 10.4725 27.0227 5.8877 20.9968 5.8877C14.9709 5.8877 10.0859 10.4725 10.0859 16.1282C10.0859 21.7838 14.9709 26.3686 20.9968 26.3686Z" fill="#81c5db"/>
<path d="M33.9017 12.8701H8.09832C3.81343 12.8701 0.339844 16.1303 0.339844 20.1519C0.339844 24.1735 3.81343 27.4337 8.09832 27.4337H33.9017C38.1866 27.4337 41.6602 24.1735 41.6602 20.1519C41.6602 16.1303 38.1866 12.8701 33.9017 12.8701Z" fill="#81c5db"/>
<path d="M25.3193 23.3869C30.8534 21.1489 33.4066 15.1241 31.0221 9.93007C28.6376 4.73604 22.2184 2.33969 16.6843 4.57767C11.1503 6.81565 8.59707 12.8405 10.9816 18.0345C13.366 23.2285 19.7853 25.6249 25.3193 23.3869Z" fill="#81c5db"/>
<g opacity="0.35">
<path d="M33.9017 12.8701H8.09832C3.81343 12.8701 0.339844 16.1303 0.339844 20.1519C0.339844 24.1735 3.81343 27.4337 8.09832 27.4337H33.9017C38.1866 27.4337 41.6602 24.1735 41.6602 20.1519C41.6602 16.1303 38.1866 12.8701 33.9017 12.8701Z" fill="#ECF1F7"/>
<path d="M25.3193 23.3869C30.8534 21.1489 33.4066 15.1241 31.0221 9.93007C28.6376 4.73604 22.2184 2.33969 16.6843 4.57767C11.1503 6.81565 8.59707 12.8405 10.9816 18.0345C13.366 23.2285 19.7853 25.6249 25.3193 23.3869Z" fill="#ECF1F7"/>
</g>

</svg>
