<svg width="19" height="19" viewBox="0 0 19 19" fill="none" xmlns="http://www.w3.org/2000/svg">
<path d="M14.875 14.5703V12.3891H15V14.5703C15 14.7006 14.964 14.8167 14.875 14.9301V14.5703ZM14.375 15.0703H14.7348C14.6214 15.1593 14.5053 15.1953 14.375 15.1953H4.625C4.49474 15.1953 4.37864 15.1593 4.26517 15.0703H4.625H14.375ZM4.125 14.5703V14.9301C4.03604 14.8167 4 14.7006 4 14.5703V12.3891H4.125V14.5703ZM9.4375 10.6516V4.19531H9.5625V10.6516V11.8587L10.4161 11.0051L12.3125 9.10867L12.4116 9.20781L9.5 12.1195L6.58836 9.20781L6.6875 9.10867L8.58395 11.0051L9.4375 11.8587V10.6516Z" fill="#737373" stroke="#737373"/>
</svg>
