<svg width="400" height="270" viewBox="0 0 400 270" fill="none" xmlns="http://www.w3.org/2000/svg">
<g clip-path="url(#clip0_21811_110073)">
<g opacity="0.41">
<path d="M20.4365 181.515C19.9219 176.701 19.8012 171.849 20.0934 167.016C21.4718 144.322 31.7621 122.44 47.7183 106.546C53.4097 100.876 59.9587 95.719 63.484 88.4441C69.4232 76.1903 68.2417 62.5348 75.7625 50.3508C83.2896 38.1541 94.6661 28.3485 107.77 22.9257C146.848 6.76484 203.698 26.6995 201.126 75.8288C201.119 76.0064 201.107 76.2601 201.107 76.5836C200.948 86.7697 209.193 94.8882 219.146 94.6028C255.899 93.5499 288.936 120.728 297.53 156.912C303.057 180.183 297.225 206.32 281.193 223.845C269.226 236.923 252.679 244.636 236.011 250.217C202.599 261.405 167.041 265.262 131.927 263.517C99.0553 261.887 64.0811 254.13 41.6458 229.598C29.6786 216.513 22.3357 199.312 20.4237 181.508L20.4365 181.515Z" fill="#a5c9db3d"/>
</g>
<g opacity="0.31">
<path d="M204.911 19.7652C205.009 15.1109 201.387 11.2597 196.82 11.1634C192.254 11.0671 188.472 14.7621 188.374 19.4164C188.275 24.0707 191.897 27.9218 196.464 28.0181C201.03 28.1144 204.812 24.4195 204.911 19.7652Z" fill="#a5c9db3d"/>
</g>
<g opacity="0.31">
<path d="M56.5135 19.8106C56.6342 22.2081 58.6414 24.0538 60.9917 23.9269C63.3483 23.8 65.1586 21.7577 65.0379 19.3539C64.9172 16.9564 62.91 15.1108 60.5597 15.2376C58.2031 15.3645 56.3928 17.4068 56.5135 19.8106Z" fill="#a5c9db3d"/>
</g>
<g opacity="0.31">
<path d="M302.008 118.121C302.09 119.707 303.412 120.931 304.974 120.848C306.531 120.766 307.731 119.409 307.649 117.823C307.566 116.237 306.245 115.013 304.682 115.096C303.126 115.178 301.925 116.535 302.008 118.121Z" fill="#a5c9db3d"/>
</g>
<g opacity="0.31">
<path d="M288.843 263.282C288.997 255.952 283.293 249.888 276.103 249.738C268.913 249.588 262.96 255.408 262.806 262.738C262.652 270.068 268.356 276.132 275.546 276.282C282.736 276.432 288.69 270.612 288.843 263.282Z" fill="#a5c9db3d"/>
</g>
<path opacity="0.8" d="M18.4752 51.5367C14.3972 44.3696 16.7983 35.1919 23.83 31.0312C30.8616 26.8705 44.7471 26.4138 48.8251 33.5809C52.9031 40.748 42.1047 47.6487 37.9187 54.7523C32.0812 64.6594 22.5532 58.7037 18.4816 51.5367H18.4752Z" fill="#ECF1F7"/>
<path opacity="0.8" d="M61.3696 276.088C56.3198 279.805 49.2754 278.644 45.6357 273.494C41.996 268.344 40.6112 257.587 45.6674 253.87C50.7173 250.153 56.6945 258.018 62.3224 260.733C70.1672 264.513 66.4322 272.371 61.376 276.088H61.3696Z" fill="#a5c9db3d"/>
<path opacity="0.8" d="M261.572 4.80462C267.048 -0.941724 276.049 -1.07492 281.677 4.50018C287.304 10.0753 291.344 23.1219 285.869 28.8682C280.393 34.6146 271.278 26.1853 263.707 24.0796C253.143 21.143 256.097 10.551 261.572 4.80462Z" fill="#a5c9db3d"/>
<path opacity="0.32" d="M30.7296 83.3498C27.0327 93.9799 26.0227 105.593 28.4174 116.578C31.6316 131.35 42.7158 144.34 40.8293 160.095C39.6986 169.551 39.8955 178.215 39.6669 187.507C39.1968 206.579 52.5487 222.372 68.2064 230.275C80.9232 236.694 95.3867 238.387 109.342 237.163C121.906 236.059 134.274 232.768 146.216 228.683C157.725 224.751 168.892 219.86 181.304 220.228C191.626 220.533 201.192 224.364 210.987 227.021C234.369 233.37 262.032 232.469 281.907 218.706C303.695 203.624 312.492 175 304.876 149.985C300.792 136.57 295.342 124.938 297.311 110.648C298.283 103.614 299.731 96.4599 298.391 89.4894C297.158 83.0708 293.639 77.2991 289.46 72.2758C278.191 58.7217 262.159 50.0769 245.485 44.9965C226.568 39.2311 205.575 36.0852 185.909 39.0725C147.708 44.876 139.393 39.2311 99.4583 33.5672C72.7037 29.7744 47.5942 51.0155 35.3983 72.9227C33.5499 76.2462 31.9873 79.7409 30.7296 83.3498Z" fill="#a5c9db3d"/>

<line x1="171.961" y1="64.2803" x2="171.961" y2="200" stroke="#c9d6e5"/>

<rect x="196.109" y="82.79" width="126.931" height="15.6629" stroke="#c9d6e5"/>
<rect x="196.109" y="111.487" width="126.931" height="15.6629" stroke="#c9d6e5"/>
<rect x="196.109" y="141.11" width="126.931" height="15.6629" stroke="#c9d6e5"/>
<rect x="196.109" y="171" width="126.931" height="15.6629" stroke="#4c92a9" fill="white"/>
<rect x="200" y="177" width="50" height="4" fill="#80808026"/>
<rect x="255" y="177" width="30" height="4" fill="#80808026"/>

<g fill="#000000" opacity="0.05" transform="scale(2) translate(12 16)">
	<path d="M33.417,22.583h12c0.552,0,1-0.447,1-1s-0.448-1-1-1h-12c-0.552,0-1,0.447-1,1S32.865,22.583,33.417,22.583z"/>
	<path d="M49.417,22.583h9c0.552,0,1-0.447,1-1s-0.448-1-1-1h-9c-0.552,0-1,0.447-1,1S48.865,22.583,49.417,22.583z"/>
	<path d="M33.417,27.583h6c0.552,0,1-0.447,1-1s-0.448-1-1-1h-6c-0.552,0-1,0.447-1,1S32.865,27.583,33.417,27.583z"/>
	<path d="M51.417,26.583c0-0.553-0.448-1-1-1h-7c-0.552,0-1,0.447-1,1s0.448,1,1,1h7C50.969,27.583,51.417,27.136,51.417,26.583z"/>
	<path d="M33.417,32.583h10c0.552,0,1-0.447,1-1s-0.448-1-1-1h-10c-0.552,0-1,0.447-1,1S32.865,32.583,33.417,32.583z"/>
	<path d="M47.417,32.583h7c0.552,0,1-0.447,1-1s-0.448-1-1-1h-7c-0.552,0-1,0.447-1,1S46.865,32.583,47.417,32.583z"/>
	<path d="M58.417,25.583h-4c-0.552,0-1,0.447-1,1s0.448,1,1,1h4c0.552,0,1-0.447,1-1S58.969,25.583,58.417,25.583z"/>
	<path d="M14.417,42.583c0,0.553,0.448,1,1,1h17c0.552,0,1-0.447,1-1s-0.448-1-1-1h-17C14.865,41.583,14.417,42.03,14.417,42.583z"
		/>
	<path d="M35.417,42.583c0,0.553,0.448,1,1,1h12c0.552,0,1-0.447,1-1s-0.448-1-1-1h-12C35.865,41.583,35.417,42.03,35.417,42.583z"
		/>
	<path d="M58.417,41.583h-6c-0.552,0-1,0.447-1,1s0.448,1,1,1h6c0.552,0,1-0.447,1-1S58.969,41.583,58.417,41.583z"/>
	<path d="M15.417,48.583h11c0.552,0,1-0.447,1-1s-0.448-1-1-1h-11c-0.552,0-1,0.447-1,1S14.865,48.583,15.417,48.583z"/>
	<path d="M29.417,47.583c0,0.553,0.448,1,1,1h7c0.552,0,1-0.447,1-1s-0.448-1-1-1h-7C29.865,46.583,29.417,47.03,29.417,47.583z"/>
	<path d="M30.417,51.583h-15c-0.552,0-1,0.447-1,1s0.448,1,1,1h15c0.552,0,1-0.447,1-1S30.969,51.583,30.417,51.583z"/>
	<path d="M45.417,51.583h-11c-0.552,0-1,0.447-1,1s0.448,1,1,1h11c0.552,0,1-0.447,1-1S45.969,51.583,45.417,51.583z"/>
	<path d="M58.417,51.583h-10c-0.552,0-1,0.447-1,1s0.448,1,1,1h10c0.552,0,1-0.447,1-1S58.969,51.583,58.417,51.583z"/>
	<path d="M58.417,46.583h-16c-0.552,0-1,0.447-1,1s0.448,1,1,1h16c0.552,0,1-0.447,1-1S58.969,46.583,58.417,46.583z"/>
</g>
<g fill="#000000" opacity="0.05" transform="scale(2) translate(12 30)">
	<path d="M14.417,42.583c0,0.553,0.448,1,1,1h17c0.552,0,1-0.447,1-1s-0.448-1-1-1h-17C14.865,41.583,14.417,42.03,14.417,42.583z"
		/>
	<path d="M35.417,42.583c0,0.553,0.448,1,1,1h12c0.552,0,1-0.447,1-1s-0.448-1-1-1h-12C35.865,41.583,35.417,42.03,35.417,42.583z"
		/>
	<path d="M58.417,41.583h-6c-0.552,0-1,0.447-1,1s0.448,1,1,1h6c0.552,0,1-0.447,1-1S58.969,41.583,58.417,41.583z"/>
	<path d="M15.417,48.583h11c0.552,0,1-0.447,1-1s-0.448-1-1-1h-11c-0.552,0-1,0.447-1,1S14.865,48.583,15.417,48.583z"/>
	<path d="M29.417,47.583c0,0.553,0.448,1,1,1h7c0.552,0,1-0.447,1-1s-0.448-1-1-1h-7C29.865,46.583,29.417,47.03,29.417,47.583z"/>
	<path d="M30.417,51.583h-15c-0.552,0-1,0.447-1,1s0.448,1,1,1h15c0.552,0,1-0.447,1-1S30.969,51.583,30.417,51.583z"/>
	<path d="M45.417,51.583h-11c-0.552,0-1,0.447-1,1s0.448,1,1,1h11c0.552,0,1-0.447,1-1S45.969,51.583,45.417,51.583z"/>
	<path d="M58.417,51.583h-10c-0.552,0-1,0.447-1,1s0.448,1,1,1h10c0.552,0,1-0.447,1-1S58.969,51.583,58.417,51.583z"/>
	<path d="M58.417,46.583h-16c-0.552,0-1,0.447-1,1s0.448,1,1,1h16c0.552,0,1-0.447,1-1S58.969,46.583,58.417,46.583z"/>
</g>
<g fill="#000000" opacity="0.05" transform="scale(2) translate(12 50)">
	<path d="M58.417,41.583h-6c-0.552,0-1,0.447-1,1s0.448,1,1,1h6c0.552,0,1-0.447,1-1S58.969,41.583,58.417,41.583z"/>
	<path d="M15.417,48.583h11c0.552,0,1-0.447,1-1s-0.448-1-1-1h-11c-0.552,0-1,0.447-1,1S14.865,48.583,15.417,48.583z"/>
	<path d="M29.417,47.583c0,0.553,0.448,1,1,1h7c0.552,0,1-0.447,1-1s-0.448-1-1-1h-7C29.865,46.583,29.417,47.03,29.417,47.583z"/>
	<path d="M30.417,51.583h-15c-0.552,0-1,0.447-1,1s0.448,1,1,1h15c0.552,0,1-0.447,1-1S30.969,51.583,30.417,51.583z"/>
	<path d="M45.417,51.583h-11c-0.552,0-1,0.447-1,1s0.448,1,1,1h11c0.552,0,1-0.447,1-1S45.969,51.583,45.417,51.583z"/>
	<path d="M58.417,51.583h-10c-0.552,0-1,0.447-1,1s0.448,1,1,1h10c0.552,0,1-0.447,1-1S58.969,51.583,58.417,51.583z"/>
	<path d="M58.417,46.583h-16c-0.552,0-1,0.447-1,1s0.448,1,1,1h16c0.552,0,1-0.447,1-1S58.969,46.583,58.417,46.583z"/>
</g>

<rect x="50" y="132" width="100" height="18.6629" stroke="#4c92a9" stroke-dasharray="5 5"/>
<!-- <rect x="-0.460938" y="198.005" width="159.223" height="16.6629" fill="#54a6c1"/> -->

<g  transform="rotate(50) translate(-5 -190) skewX(25)">
<path d="M273.851 106.624C273.657 106.428 273.34 106.426 273.144 106.62L269.945 109.785C269.748 109.979 269.747 110.295 269.941 110.492C270.135 110.688 270.452 110.69 270.648 110.496L273.492 107.683L276.305 110.527C276.499 110.723 276.815 110.725 277.012 110.53C277.208 110.336 277.21 110.02 277.016 109.823L273.851 106.624ZM100.528 208.427C129.931 209.283 173.118 209.649 209.033 196.961C226.999 190.614 243.175 180.99 254.895 166.5C266.621 152.003 273.855 132.674 273.996 106.978L272.996 106.973C272.856 132.472 265.683 151.573 254.118 165.871C242.547 180.176 226.549 189.712 208.699 196.018C172.983 208.636 129.973 208.284 100.558 207.428L100.528 208.427Z" fill="red" />
</g>


<g clip-path="url(#clip1_21811_110073)" transform="scale(0.5) translate(110 85)">
<path fill-rule="evenodd" clip-rule="evenodd" d="M96.7526 253.53C92.621 257.558 88.2594 260.131 83.5926 260.761C78.8767 261.397 73.9527 260.052 68.7689 256.228L68.7714 256.225C66.0667 254.369 64.2778 252.192 63.5023 249.661C62.7167 247.098 62.9889 244.256 64.4212 241.109C65.8622 237.632 66.0711 233.521 66.2791 229.411C66.3884 227.251 66.4977 225.092 66.7859 222.942L66.7971 222.874C67.2953 220.108 68.2565 218.227 69.4369 217.072C70.1032 216.421 70.8379 215.989 71.6053 215.753C72.3916 215.512 73.197 215.476 73.9881 215.62C75.2328 215.847 76.4289 216.518 77.4285 217.514C78.5492 218.493 78.9471 221.13 79.3445 223.767L79.3681 223.923L94.8804 207.401C96.5306 205.644 98.6849 205.47 100.505 206.211C101.159 206.477 101.768 206.869 102.291 207.352C102.813 207.835 103.249 208.413 103.553 209.05C104.37 210.759 104.299 212.827 102.594 214.643L95.4788 222.222C96.0083 222.433 96.5004 222.729 96.9344 223.095C97.5686 223.631 98.0839 224.322 98.4121 225.123C98.9047 226.323 98.9755 227.743 98.3923 229.211C98.6328 229.292 98.8664 229.39 99.0924 229.505C99.885 229.909 100.563 230.52 101.073 231.268C101.572 231.998 101.914 232.857 102.048 233.775C102.186 234.719 102.114 235.73 101.776 236.732C102.144 236.822 102.493 236.951 102.819 237.115C103.645 237.527 104.318 238.156 104.799 238.92C105.269 239.667 105.552 240.54 105.607 241.457C105.703 243.062 105.111 244.806 103.617 246.228L96.8055 253.484L96.7526 253.53ZM83.1536 257.535C87.0547 257.008 90.7987 254.77 94.4247 251.249L94.4224 251.247L101.239 243.987L101.318 243.912C102.09 243.196 102.399 242.369 102.356 241.638C102.334 241.275 102.227 240.937 102.05 240.655C101.883 240.39 101.649 240.172 101.363 240.028C100.842 239.768 100.114 239.756 99.2353 240.144L97.4694 237.454C98.6069 236.415 98.9694 235.233 98.8241 234.243C98.7608 233.811 98.6087 233.42 98.3898 233.1C98.1832 232.797 97.9185 232.555 97.617 232.401C97.1022 232.139 96.4262 232.146 95.6906 232.577L93.6728 230.053L95.1135 228.519C95.6046 227.692 95.6425 226.935 95.4034 226.351C95.2801 226.052 95.0812 225.787 94.8327 225.577C94.5877 225.371 94.2994 225.223 93.9942 225.154C93.4254 225.024 92.7674 225.173 92.1837 225.723L89.8706 223.42L100.211 212.406C100.841 211.736 100.892 211.022 100.621 210.457C100.493 210.19 100.305 209.942 100.076 209.731C99.8469 209.519 99.5767 209.345 99.2858 209.227C98.6254 208.958 97.8495 209.015 97.2635 209.639L77.4202 230.775L76.7363 227.781C76.5179 226.825 76.324 225.535 76.1292 224.245C75.8188 222.186 75.533 220.14 75.5211 220.133L75.1828 219.868C74.6306 219.304 74.0139 218.933 73.4152 218.824C73.1273 218.772 72.8415 218.782 72.5728 218.865C72.2852 218.953 71.9973 219.126 71.7234 219.395C70.9965 220.107 70.3793 221.394 70.0107 223.407C69.7467 225.388 69.6402 227.486 69.5341 229.583C69.3109 233.985 69.0878 238.388 67.4061 242.413L67.3849 242.463C66.3009 244.842 66.0714 246.915 66.6214 248.709C67.1772 250.524 68.5482 252.139 70.6549 253.576L70.7055 253.606C75.1553 256.89 79.2834 258.057 83.1536 257.535Z" fill="#54a6c1"/>
<path fill-rule="evenodd" clip-rule="evenodd" d="M96.7526 253.53C92.621 257.558 88.2594 260.131 83.5926 260.761C78.8767 261.397 73.9527 260.052 68.7689 256.228L68.7714 256.225C66.0667 254.369 64.2778 252.192 63.5023 249.661C62.7167 247.098 62.9889 244.256 64.4212 241.109C65.8622 237.632 66.0711 233.521 66.2791 229.411C66.3884 227.251 66.4977 225.092 66.7859 222.942L66.7971 222.874C67.2953 220.108 68.2565 218.227 69.4369 217.072C70.1032 216.421 70.8379 215.989 71.6053 215.753C72.3916 215.512 73.197 215.476 73.9881 215.62C75.2328 215.847 76.4289 216.518 77.4285 217.514C78.5492 218.493 78.9471 221.13 79.3445 223.767L79.3681 223.923L94.8804 207.401C96.5306 205.644 98.6849 205.47 100.505 206.211C101.159 206.477 101.768 206.869 102.291 207.352C102.813 207.835 103.249 208.413 103.553 209.05C104.37 210.759 104.299 212.827 102.594 214.643L95.4788 222.222C96.0083 222.433 96.5004 222.729 96.9344 223.095C97.5686 223.631 98.0839 224.322 98.4121 225.123C98.9047 226.323 98.9755 227.743 98.3923 229.211C98.6328 229.292 98.8664 229.39 99.0924 229.505C99.885 229.909 100.563 230.52 101.073 231.268C101.572 231.998 101.914 232.857 102.048 233.775C102.186 234.719 102.114 235.73 101.776 236.732C102.144 236.822 102.493 236.951 102.819 237.115C103.645 237.527 104.318 238.156 104.799 238.92C105.269 239.667 105.552 240.54 105.607 241.457C105.703 243.062 105.111 244.806 103.617 246.228L96.8055 253.484L96.7526 253.53ZM83.1536 257.535C87.0547 257.008 90.7987 254.77 94.4247 251.249L94.4224 251.247L101.239 243.987L101.318 243.912C102.09 243.196 102.399 242.369 102.356 241.638C102.334 241.275 102.227 240.937 102.05 240.655C101.883 240.39 101.649 240.172 101.363 240.028C100.842 239.768 100.114 239.756 99.2353 240.144L97.4694 237.454C98.6069 236.415 98.9694 235.233 98.8241 234.243C98.7608 233.811 98.6087 233.42 98.3898 233.1C98.1832 232.797 97.9185 232.555 97.617 232.401C97.1022 232.139 96.4262 232.146 95.6906 232.577L93.6728 230.053L95.1135 228.519C95.6046 227.692 95.6425 226.935 95.4034 226.351C95.2801 226.052 95.0812 225.787 94.8327 225.577C94.5877 225.371 94.2994 225.223 93.9942 225.154C93.4254 225.024 92.7674 225.173 92.1837 225.723L89.8706 223.42L100.211 212.406C100.841 211.736 100.892 211.022 100.621 210.457C100.493 210.19 100.305 209.942 100.076 209.731C99.8469 209.519 99.5767 209.345 99.2858 209.227C98.6254 208.958 97.8495 209.015 97.2635 209.639L77.4202 230.775L76.7363 227.781C76.5179 226.825 76.324 225.535 76.1292 224.245C75.8188 222.186 75.533 220.14 75.5211 220.133L75.1828 219.868C74.6306 219.304 74.0139 218.933 73.4152 218.824C73.1273 218.772 72.8415 218.782 72.5728 218.865C72.2852 218.953 71.9973 219.126 71.7234 219.395C70.9965 220.107 70.3793 221.394 70.0107 223.407C69.7467 225.388 69.6402 227.486 69.5341 229.583C69.3109 233.985 69.0878 238.388 67.4061 242.413L67.3849 242.463C66.3009 244.842 66.0714 246.915 66.6214 248.709C67.1772 250.524 68.5482 252.139 70.6549 253.576L70.7055 253.606C75.1553 256.89 79.2834 258.057 83.1536 257.535Z" fill="#4e92a9"/>
<path fill-rule="evenodd" clip-rule="evenodd" d="M89.8677 223.421C90.4842 222.764 91.5177 222.732 92.1761 223.35C92.8345 223.969 92.8681 225.002 92.2512 225.659L87.484 230.736C86.8674 231.393 85.834 231.425 85.1756 230.807C84.5172 230.188 84.4835 229.155 85.1005 228.498L89.8677 223.421Z" fill="#54a6c1"/>
<path fill-rule="evenodd" clip-rule="evenodd" d="M93.6724 230.053C94.2889 229.396 95.3224 229.364 95.9808 229.982C96.6392 230.6 96.6728 231.633 96.0559 232.29L90.819 237.868C90.2025 238.525 89.169 238.557 88.5106 237.939C87.8522 237.321 87.8186 236.288 88.4355 235.63L93.6724 230.053Z" fill="#54a6c1"/>
<path fill-rule="evenodd" clip-rule="evenodd" d="M97.3795 237.538C97.996 236.881 99.0294 236.849 99.6878 237.468C100.346 238.086 100.38 239.119 99.7629 239.776L94.526 245.354C93.9095 246.01 92.876 246.042 92.2176 245.424C91.5592 244.806 91.5256 243.773 92.1425 243.116L97.3795 237.538Z" fill="#54a6c1"/>
</g>
</g>
<defs>
<clipPath id="clip0_21811_110073">
<rect width="324" height="309.19" fill="white" transform="translate(0 0.405273)"/>
</clipPath>
<clipPath id="clip1_21811_110073">
<rect width="44.892" height="58.7871" fill="white" transform="matrix(0.729032 0.68448 -0.684476 0.729035 89.6758 195.508)"/>
</clipPath>
</defs>
</svg>
