<!DOCTYPE svg PUBLIC "-//W3C//DTD SVG 1.1//EN" "http://www.w3.org/Graphics/SVG/1.1/DTD/svg11.dtd">

<!-- Uploaded to: SVG Repo, www.svgrepo.com, Transformed by: SVG Repo Mixer Tools -->
<svg fill="#ffffff" width="87px" height="87px" viewBox="0 0 32.00 32.00" id="icon" xmlns="http://www.w3.org/2000/svg" stroke="#ffffff" stroke-width="1.3439999999999999">

<g id="SVGRepo_iconCarrier"> <defs> <style> .cls-1 { fill: none; } </style> </defs> <polygon points="4 20 4 22 8.586 22 2 28.586 3.414 30 10 23.414 10 28 12 28 12 20 4 20"/> <polygon points="22 16 24 16 24 10 29 10 29 8 24 8 24 4 30 4 30 2 22 2 22 16"/> <path d="M16,2H12V16h4a4,4,0,0,0,4-4V6A4,4,0,0,0,16,2Zm2,10a2,2,0,0,1-2,2H14V4h2a2,2,0,0,1,2,2Z"/> <path d="M8,2H2V16H4V11H8a2,2,0,0,0,2-2V4A2,2,0,0,0,8,2ZM8,9H4V4H8Z"/>
</g>

</svg>
