<?xml version="1.0" encoding="utf-8"?>

<!-- Uploaded to: SVG Repo, www.svgrepo.com, Generator: SVG Repo Mixer Tools -->
<svg fill="#3990abc4" height="800px" width="800px" version="1.1" id="Icons" xmlns="http://www.w3.org/2000/svg" xmlns:xlink="http://www.w3.org/1999/xlink"
	 viewBox="0 0 32 32" xml:space="preserve">
<g>
	<!-- <path d="M22,4h7c0.6,0,1-0.4,1-1s-0.4-1-1-1h-7c-0.6,0-1,0.4-1,1S21.4,4,22,4z"/> -->
	<!-- <path d="M29,8h-7c-0.6,0-1,0.4-1,1s0.4,1,1,1h7c0.6,0,1-0.4,1-1S29.6,8,29,8z"/> -->
	<path d="M29,14h-7c-0.6,0-1,0.4-1,1s0.4,1,1,1h7c0.6,0,1-0.4,1-1S29.6,14,29,14z"/>
	<path d="M29,20H3c-0.6,0-1,0.4-1,1s0.4,1,1,1h26c0.6,0,1-0.4,1-1S29.6,20,29,20z"/>
	<path d="M29,26H3c-0.6,0-1,0.4-1,1s0.4,1,1,1h26c0.6,0,1-0.4,1-1S29.6,26,29,26z"/>

	 <rect x="3" y="2" width="13" height="2" />
   <rect x="3" y="8" width="20" height="2" />
  <rect  x="3" y="14" width="13" height="2" />
</g>
</svg>
